<svg xmlns="http://www.w3.org/2000/svg" version="1.1" xmlns:xlink="http://www.w3.org/1999/xlink" xmlns:svgjs="http://svgjs.com/svgjs" width="1440" height="560" preserveAspectRatio="none" viewBox="0 0 1440 560"><g mask="url(&quot;#SvgjsMask1005&quot;)" fill="none"><rect width="1440" height="560" x="0" y="0" fill="rgba(34, 83, 211, 1)"></rect><path d="M1488 560L0 560 L0 308.92Q37.26 274.19, 72 311.45Q123.23 290.68, 144 341.91Q172.38 298.29, 216 326.67Q273.03 311.7, 288 368.73Q307.99 268.72, 408 288.7Q478.03 238.73, 528 308.76Q586.53 295.29, 600 353.83Q671.13 304.95, 720 376.08Q749.03 285.11, 840 314.13Q883.71 285.84, 912 329.54Q995.61 293.15, 1032 376.76Q1035.54 308.29, 1104 311.83Q1155.41 243.25, 1224 294.66Q1253.61 252.26, 1296 281.87Q1396.17 262.05, 1416 362.22Q1432.31 306.53, 1488 322.84z" fill="rgba(20, 2, 83, 1)"></path><path d="M1560 560L0 560 L0 375.73Q63.87 319.6, 120 383.47Q208.02 351.5, 240 439.52Q265.15 344.67, 360 369.83Q429.64 319.47, 480 389.1Q566.7 355.8, 600 442.49Q619.07 341.56, 720 360.63Q774.82 343.45, 792 398.27Q844.1 330.37, 912 382.46Q968.88 367.35, 984 424.23Q1016.82 337.05, 1104 369.87Q1145.74 339.62, 1176 381.36Q1222.01 355.37, 1248 401.38Q1297.28 378.66, 1320 427.94Q1386.26 374.2, 1440 440.46Q1476.48 356.94, 1560 393.43z" fill="#25467d"></path><path d="M1464 560L0 560 L0 451.35Q35.45 414.81, 72 450.26Q128.19 434.45, 144 490.64Q173.61 448.25, 216 477.86Q253.25 395.11, 336 432.35Q403.77 380.13, 456 447.9Q529.69 401.59, 576 475.28Q630.7 457.98, 648 512.68Q696.06 440.74, 768 488.8Q813.83 414.63, 888 460.46Q945.04 445.5, 960 502.53Q962.86 433.38, 1032 436.24Q1097.61 381.85, 1152 447.45Q1224.58 400.03, 1272 472.61Q1322.58 451.19, 1344 501.77Q1373.35 411.12, 1464 440.46z" fill="#356cb1"></path><path d="M1488 560L0 560 L0 521.47Q72.9 474.38, 120 547.28Q132.19 487.47, 192 499.66Q235.87 471.53, 264 515.4Q340.18 471.58, 384 547.76Q412.16 503.92, 456 532.08Q515.7 519.78, 528 579.48Q549.45 480.93, 648 502.39Q689.94 472.33, 720 514.28Q790.71 512.99, 792 583.69Q809.22 480.91, 912 498.13Q979.29 445.42, 1032 512.7Q1122.75 483.45, 1152 574.2Q1176.9 527.11, 1224 552.01Q1235.55 491.56, 1296 503.11Q1367.92 455.03, 1416 526.95Q1474.15 513.1, 1488 571.25z" fill="white"></path></g><defs><mask id="SvgjsMask1005"><rect width="1440" height="560" fill="#ffffff"></rect></mask></defs></svg>